<?xml version="1.0" encoding="utf-8"?><!DOCTYPE svg PUBLIC "-//W3C//DTD SVG 1.1//EN" "http://www.w3.org/Graphics/SVG/1.1/DTD/svg11.dtd">
<svg version="1.1" id="Layer_1" xmlns="http://www.w3.org/2000/svg" xmlns:xlink="http://www.w3.org/1999/xlink" x="0px" y="0px" width="500px" height="500px" viewBox="0 0 500 500" enable-background="new 0 0 500 500" xml:space="preserve">
<g>
	<g>
		<path fill="none" d="M157.998,381.444c0-5.111-4.158-9.271-9.27-9.271h-48.98V303.34h48.98c5.11,0,9.27-4.158,9.27-9.271
			c0-5.111-4.158-9.271-9.27-9.271h-48.98v-68.832h48.98c5.11,0,9.27-4.159,9.27-9.271c0-5.112-4.158-9.271-9.27-9.271h-48.98
			v-68.832h48.98c5.11,0,9.27-4.159,9.27-9.271c0-5.112-4.158-9.271-9.27-9.271h-48.98V32.974
			c-10.604,2.414-18.541,11.918-18.541,23.242v53.832H41.936c-5.11,0-9.27,4.159-9.27,9.271c0,5.112,4.158,9.271,9.27,9.271h39.271
			v68.832H41.936c-5.11,0-9.27,4.159-9.27,9.271c0,5.111,4.158,9.271,9.27,9.271h39.271v68.832H41.936
			c-5.11,0-9.27,4.159-9.27,9.271s4.158,9.271,9.27,9.271h39.271v68.834H41.936c-5.11,0-9.27,4.159-9.27,9.271
			c0,5.111,4.158,9.271,9.27,9.271h39.271v53.834c0,11.323,7.938,20.827,18.541,23.24v-77.074h48.98
			C153.84,390.715,157.998,386.556,157.998,381.444z"></path>
	</g>
	<g>
		<path fill="none" d="M459.833,196.548h2.481c3.562,0,6.352-2.793,6.352-6.359V87.284c0-3.567-2.79-6.361-6.352-6.361h-2.481
			V196.548z"></path>
	</g>
	<g>
		<path fill="none" d="M308.014,119.471c-29.085,0-52.747,23.662-52.747,52.747c0,29.084,23.662,52.746,52.747,52.746
			c29.084,0,52.746-23.662,52.746-52.746C360.76,143.133,337.098,119.471,308.014,119.471z"></path>
	</g>
	<g>
		<path fill="none" d="M462.314,381.007c3.562,0,6.352-2.794,6.352-6.36V271.741c0-3.566-2.79-6.359-6.352-6.359h-2.481v115.625
			H462.314z"></path>
	</g>
	<g>
		<path fill="none" d="M429.833,265.382v-68.834V80.923v-15v-9.707c0-13.142-10.69-23.834-23.834-23.834H129.748v47.666h18.98
			c21.652,0,39.27,17.617,39.27,39.271c0,21.654-17.616,39.271-39.27,39.271h-18.98v8.832h18.98c21.652,0,39.27,17.617,39.27,39.271
			c0,21.653-17.616,39.271-39.27,39.271h-18.98v8.832h18.98c21.652,0,39.27,17.617,39.27,39.271s-17.616,39.271-39.27,39.271h-18.98
			v8.834h18.98c21.652,0,39.27,17.617,39.27,39.271c0,21.653-17.616,39.271-39.27,39.271h-18.98v47.667h276.251
			c13.144,0,23.834-10.691,23.834-23.833v-48.542v-15V265.382z M375.76,366.957H250.666c-8.284,0-15-6.716-15-15s6.716-15,15-15
			H375.76c8.284,0,15,6.716,15,15S384.044,366.957,375.76,366.957z M375.76,314.46H250.666c-8.284,0-15-6.716-15-15s6.716-15,15-15
			H375.76c8.284,0,15,6.716,15,15S384.044,314.46,375.76,314.46z M308.014,254.964c-45.627,0-82.747-37.12-82.747-82.746
			c0-45.627,37.12-82.747,82.747-82.747c45.626,0,82.746,37.12,82.746,82.747C390.76,217.844,353.64,254.964,308.014,254.964z"></path>
	</g>
	<g>
		<g id="change1_1"><path fill="#FFCC00" d="M462.314,226.548c20.043,0,36.352-16.311,36.352-36.359V87.284c0-20.05-16.309-36.361-36.352-36.361
			h-2.739c-2.669-27.208-25.679-48.541-53.576-48.541H105.041c-29.686,0-53.834,24.15-53.834,53.834v23.832h-9.271
			c-21.652,0-39.27,17.617-39.27,39.271c0,21.654,17.616,39.271,39.27,39.271h9.271v8.832h-9.271
			c-21.652,0-39.27,17.617-39.27,39.271c0,21.653,17.616,39.271,39.27,39.271h9.271v8.832h-9.271
			c-21.652,0-39.27,17.617-39.27,39.271s17.616,39.271,39.27,39.271h9.271v8.834h-9.271c-21.652,0-39.27,17.617-39.27,39.271
			c0,21.653,17.616,39.271,39.27,39.271h9.271v23.834c0,29.685,24.148,53.833,53.834,53.833h300.958
			c29.685,0,53.834-24.148,53.834-53.833v-33.542h2.481c20.043,0,36.352-16.312,36.352-36.359V271.741
			c0-20.05-16.309-36.359-36.352-36.359h-2.481v-8.834H462.314z M468.666,87.284v102.904c0,3.566-2.79,6.359-6.352,6.359h-2.481
			V80.923h2.481C465.876,80.923,468.666,83.717,468.666,87.284z M99.748,390.715v77.074c-10.604-2.413-18.541-11.917-18.541-23.24
			v-53.834H41.936c-5.11,0-9.27-4.159-9.27-9.271c0-5.112,4.158-9.271,9.27-9.271h39.271V303.34H41.936
			c-5.11,0-9.27-4.158-9.27-9.271c0-5.111,4.158-9.271,9.27-9.271h39.271v-68.832H41.936c-5.11,0-9.27-4.159-9.27-9.271
			c0-5.112,4.158-9.271,9.27-9.271h39.271v-68.832H41.936c-5.11,0-9.27-4.159-9.27-9.271c0-5.112,4.158-9.271,9.27-9.271h39.271
			V56.218c0-11.324,7.938-20.828,18.541-23.242v77.074h48.98c5.11,0,9.27,4.159,9.27,9.271c0,5.112-4.158,9.271-9.27,9.271h-48.98
			v68.832h48.98c5.11,0,9.27,4.159,9.27,9.271c0,5.111-4.158,9.271-9.27,9.271h-48.98v68.832h48.98c5.11,0,9.27,4.159,9.27,9.271
			s-4.158,9.271-9.27,9.271h-48.98v68.834h48.98c5.11,0,9.27,4.159,9.27,9.271c0,5.111-4.158,9.271-9.27,9.271L99.748,390.715
			L99.748,390.715z M429.833,444.549c0,13.143-10.69,23.833-23.834,23.833H129.748v-47.667h18.98
			c21.652,0,39.27-17.617,39.27-39.271c0-21.654-17.616-39.271-39.27-39.271h-18.98v-8.834h18.98
			c21.652,0,39.27-17.616,39.27-39.271s-17.616-39.271-39.27-39.271h-18.98v-8.832h18.98c21.652,0,39.27-17.617,39.27-39.271
			c0-21.654-17.616-39.271-39.27-39.271h-18.98v-8.832h18.98c21.652,0,39.27-17.617,39.27-39.271
			c0-21.654-17.616-39.271-39.27-39.271h-18.98V32.382h276.251c13.144,0,23.834,10.692,23.834,23.834v9.707v15v115.625v68.834
			v115.625v15V444.549z M462.314,265.382c3.562,0,6.352,2.793,6.352,6.359v102.905c0,3.565-2.79,6.359-6.352,6.359h-2.481V265.382
			H462.314z"></path></g>
	</g>
	<g>
		<g id="change1_2"><path fill="#FFCC00" d="M308.014,89.471c-45.627,0-82.747,37.12-82.747,82.747c0,45.626,37.12,82.746,82.747,82.746
			c45.626,0,82.746-37.12,82.746-82.746C390.76,126.591,353.64,89.471,308.014,89.471z M308.014,224.964
			c-29.085,0-52.747-23.662-52.747-52.746c0-29.085,23.662-52.747,52.747-52.747c29.084,0,52.746,23.662,52.746,52.747
			C360.76,201.302,337.098,224.964,308.014,224.964z"></path></g>
	</g>
	<g>
		<g id="change1_3"><path fill="#FFCC00" d="M375.76,284.46H250.666c-8.284,0-15,6.716-15,15s6.716,15,15,15H375.76c8.284,0,15-6.716,15-15
			S384.044,284.46,375.76,284.46z"></path></g>
	</g>
	<g>
		<g id="change1_4"><path fill="#FFCC00" d="M375.76,336.957H250.666c-8.284,0-15,6.716-15,15s6.716,15,15,15H375.76c8.284,0,15-6.716,15-15
			S384.044,336.957,375.76,336.957z"></path></g>
	</g>
</g>
</svg>