<?xml version="1.0" encoding="utf-8"?>
<!-- Generator: Adobe Illustrator 15.0.0, SVG Export Plug-In . SVG Version: 6.00 Build 0)  -->
<!DOCTYPE svg PUBLIC "-//W3C//DTD SVG 1.1//EN" "http://www.w3.org/Graphics/SVG/1.1/DTD/svg11.dtd">
<svg version="1.1" id="Layer_1" xmlns="http://www.w3.org/2000/svg" xmlns:xlink="http://www.w3.org/1999/xlink" x="0px" y="0px"
	 width="500px" height="500px" viewBox="0 0 500 500" enable-background="new 0 0 500 500" xml:space="preserve">
<g id="change1">
	<path fill="#FFCC00" d="M435.337,124.686h-53.883h-5.034V84.248c0-28.65-23.311-51.959-51.96-51.959H176.625
		c-28.648,0-51.957,23.309-51.957,51.959v40.438H65.75c-28.65,0-51.959,23.309-51.959,51.959v240.232
		c0,28.65,23.309,51.959,51.959,51.959h369.587c28.65,0,51.959-23.309,51.959-51.959V176.645
		C487.296,147.995,463.987,124.686,435.337,124.686z M176.625,62.29H324.46c12.108,0,21.96,9.851,21.96,21.959v40.438h-22.199
		v-10.869c0-19.48-15.853-35.329-35.338-35.329h-77.697c-19.476,0-35.319,15.849-35.319,35.329v10.869h-21.197V84.249
		C154.668,72.14,164.518,62.29,176.625,62.29z M294.221,124.686h-88.354v-10.869c0-2.988,2.337-5.329,5.319-5.329h77.697
		c2.993,0,5.338,2.341,5.338,5.329V124.686z M65.75,154.686h59.703h29.215h21.197H324.22h22.199h35.034h53.883
		c12.108,0,21.959,9.851,21.959,21.959v51.943c-18.355,13.127-79.912,53.131-156.175,59.623v-6.096c0-14.889-12.112-27-27-27
		h-41.334c-14.888,0-27,12.111-27,27v5.188c-78.695-4.891-143.119-46.616-161.996-60.066v-50.591
		C43.791,164.537,53.643,154.686,65.75,154.686z M271.121,285.114v35.333h-35.334v-35.333H271.121z M435.337,438.836H65.75
		c-12.107,0-21.959-9.852-21.959-21.959V263.369c31.568,19.744,90.921,50.126,161.996,53.998v6.081c0,14.888,12.111,27,27,27h41.334
		c14.888,0,27-12.112,27-27v-5.123c68.488-5.152,125.472-34.419,156.175-53.622v152.174
		C457.296,428.984,447.445,438.836,435.337,438.836z"/>
</g>
</svg>
