<?xml version="1.0" encoding="utf-8"?>
<!-- Generator: Adobe Illustrator 15.0.0, SVG Export Plug-In . SVG Version: 6.00 Build 0)  -->
<!DOCTYPE svg PUBLIC "-//W3C//DTD SVG 1.1//EN" "http://www.w3.org/Graphics/SVG/1.1/DTD/svg11.dtd">
<svg version="1.1" id="Layer_1" xmlns="http://www.w3.org/2000/svg" xmlns:xlink="http://www.w3.org/1999/xlink" x="0px" y="0px"
	 width="486.395px" height="486.39px" viewBox="0 0 486.395 486.39" enable-background="new 0 0 486.395 486.39"
	 xml:space="preserve">
<g id="change1">
	<path fill="#FFCC00" d="M64.374,185.898h143.56c8.284,0,15-6.716,15-15s-6.716-15-15-15H64.374c-8.283,0-15,6.716-15,15
		S56.091,185.898,64.374,185.898z"/>
	<path fill="#FFCC00" d="M471.395,0H15C6.716,0,0,6.716,0,15v456.39c0,8.283,6.716,15,15,15h456.395c8.284,0,15-6.717,15-15V15
		C486.395,6.716,479.679,0,471.395,0z M456.395,456.388H30V29.999h426.395V456.388z"/>
	<path fill="#FFCC00" d="M123.794,282.102H80.538c-7.091,0-12.859,3.886-12.859,8.663v123.58c0,4.775,5.77,8.662,12.859,8.662
		h43.256c7.092,0,12.859-3.887,12.859-8.662v-123.58C136.653,285.988,130.886,282.102,123.794,282.102z"/>
	<path fill="#FFCC00" d="M224.218,215.673h-43.256c-7.091,0-12.858,5.553-12.858,12.379V407.88c0,6.824,5.769,12.377,12.858,12.377
		h43.256c7.092,0,12.859-5.553,12.859-12.377V228.052C237.077,221.227,231.309,215.673,224.218,215.673z"/>
	<path fill="#FFCC00" d="M279.321,317.466c-7.211,0-12.859,2.793-12.859,6.358v88.698c0,3.564,5.648,6.357,12.859,6.357h43.256
		c7.211,0,12.859-2.793,12.859-6.357v-88.698c0-3.565-5.648-6.358-12.859-6.358H279.321z"/>
	<path fill="#FFCC00" d="M363.356,421.798h43.256c7.091,0,12.859-8.871,12.859-19.776V110.177c0-10.906-5.77-19.778-12.859-19.778
		h-43.256c-7.092,0-12.859,8.873-12.859,19.778v291.844C350.497,412.927,356.265,421.798,363.356,421.798z"/>
	<path fill="#FFCC00" d="M68.179,121.898h241.918c8.283,0,15-6.716,15-15s-6.717-15-15-15H68.179c-8.284,0-15,6.716-15,15
		S59.895,121.898,68.179,121.898z"/>
</g>
</svg>
