<?xml version="1.0" encoding="utf-8"?>
<!-- Generator: Adobe Illustrator 15.0.0, SVG Export Plug-In . SVG Version: 6.00 Build 0)  -->
<!DOCTYPE svg PUBLIC "-//W3C//DTD SVG 1.1//EN" "http://www.w3.org/Graphics/SVG/1.1/DTD/svg11.dtd">
<svg version="1.1" id="Layer_1" xmlns="http://www.w3.org/2000/svg" xmlns:xlink="http://www.w3.org/1999/xlink" x="0px" y="0px"
	 width="418.234px" height="507.826px" viewBox="0 0 418.234 507.826" enable-background="new 0 0 418.234 507.826"
	 xml:space="preserve">
<g id="change1">
	<path fill="#FFCC00" d="M331.559,109.503h-62.781v32.917c0,3.87-3.031,6.901-6.899,6.901H156.359c-3.87,0-6.902-3.031-6.902-6.901
		v-32.917h-62.78c-20.349,0-36.902,16.554-36.902,36.901v274.747c0,20.348,16.555,36.902,36.902,36.902H331.56
		c20.348,0,36.902-16.556,36.902-36.902V146.404C368.461,126.056,351.906,109.503,331.559,109.503z M338.461,421.151
		c0,3.87-3.032,6.902-6.902,6.902H86.676c-3.871,0-6.902-3.032-6.902-6.902V146.404c0-3.87,3.031-6.901,6.902-6.901h32.78v2.917
		c0,20.348,16.556,36.901,36.902,36.901h105.519c20.347,0,36.899-16.554,36.899-36.901v-2.917h32.781
		c3.87,0,6.901,3.031,6.901,6.901v274.747H338.461z"/>
	<path fill="#FFCC00" d="M209.117,103.548c14.825,0,26.887-12.062,26.887-26.887s-12.062-26.887-26.887-26.887
		c-14.824,0-26.887,12.062-26.887,26.887S194.291,103.548,209.117,103.548z M209.117,73.548c1.717,0,3.113,1.396,3.113,3.113
		s-1.396,3.113-3.113,3.113s-3.113-1.396-3.113-3.113S207.4,73.548,209.117,73.548z"/>
	<path fill="#FFCC00" d="M363.416,59.729h-69.752C281.205,24.482,247.423,0,209.117,0c-38.309,0-72.09,24.481-84.547,59.729H54.82
		C24.592,59.729,0,84.32,0,114.547v338.459c0,30.229,24.593,54.819,54.82,54.819h308.596c30.227,0,54.818-24.592,54.818-54.819
		v-338.46C418.234,84.321,393.643,59.729,363.416,59.729z M388.234,453.008c0,13.687-11.134,24.819-24.818,24.819H54.82
		c-13.686,0-24.82-11.134-24.82-24.819V114.548c0-13.685,11.136-24.818,24.82-24.818h93.411l2.427-12.036
		c5.571-27.635,30.156-47.693,58.459-47.693c28.301,0,52.889,20.058,58.46,47.693l2.427,12.035h93.412
		c13.686,0,24.818,11.133,24.818,24.818V453.008z"/>
	<path fill="#FFCC00" d="M168.617,233.827h78c8.284,0,15-6.716,15-15s-6.716-15-15-15h-78c-8.283,0-15,6.716-15,15
		S160.332,233.827,168.617,233.827z"/>
	<path fill="#FFCC00" d="M295.617,258.899h-172c-8.283,0-15,6.716-15,15c0,8.283,6.717,15,15,15h172c8.284,0,15-6.717,15-15
		C310.617,265.615,303.901,258.899,295.617,258.899z"/>
	<path fill="#FFCC00" d="M294.617,311.827h-172c-8.283,0-15,6.716-15,15s6.717,15,15,15h172c8.284,0,15-6.716,15-15
		S302.901,311.827,294.617,311.827z"/>
	<path fill="#FFCC00" d="M294.617,361.827h-172c-8.283,0-15,6.716-15,15s6.717,15,15,15h172c8.284,0,15-6.716,15-15
		S302.901,361.827,294.617,361.827z"/>
</g>
</svg>
